<svg width="163" height="40" viewBox="0 0 163 40" fill="none" xmlns="http://www.w3.org/2000/svg">
<path d="M62.036 18.364V26.968C62.036 28.3 61.658 29.326 60.902 30.046C60.158 30.766 59.15 31.126 57.878 31.126C56.546 31.126 55.478 30.748 54.674 29.992C53.87 29.236 53.468 28.162 53.468 26.77H56.528C56.528 27.298 56.636 27.7 56.852 27.976C57.068 28.24 57.38 28.372 57.788 28.372C58.16 28.372 58.448 28.252 58.652 28.012C58.856 27.772 58.958 27.424 58.958 26.968V18.364H62.036ZM72.4423 18.364V26.968C72.4423 28.3 72.0643 29.326 71.3083 30.046C70.5643 30.766 69.5563 31.126 68.2843 31.126C66.9523 31.126 65.8843 30.748 65.0803 29.992C64.2763 29.236 63.8743 28.162 63.8743 26.77H66.9343C66.9343 27.298 67.0423 27.7 67.2583 27.976C67.4743 28.24 67.7863 28.372 68.1943 28.372C68.5663 28.372 68.8543 28.252 69.0583 28.012C69.2623 27.772 69.3643 27.424 69.3643 26.968V18.364H72.4423ZM90.7834 18.364V20.83H85.6354V23.494H89.4874V25.888H85.6354V31H82.5574V18.364H90.7834ZM93.9492 19.912C93.4092 19.912 92.9652 19.756 92.6172 19.444C92.2812 19.12 92.1132 18.724 92.1132 18.256C92.1132 17.776 92.2812 17.38 92.6172 17.068C92.9652 16.744 93.4092 16.582 93.9492 16.582C94.4772 16.582 94.9092 16.744 95.2452 17.068C95.5932 17.38 95.7672 17.776 95.7672 18.256C95.7672 18.724 95.5932 19.12 95.2452 19.444C94.9092 19.756 94.4772 19.912 93.9492 19.912ZM95.4792 20.956V31H92.4012V20.956H95.4792ZM103.83 20.848C105.006 20.848 105.942 21.232 106.638 22C107.346 22.756 107.7 23.8 107.7 25.132V31H104.64V25.546C104.64 24.874 104.466 24.352 104.118 23.98C103.77 23.608 103.302 23.422 102.714 23.422C102.126 23.422 101.658 23.608 101.31 23.98C100.962 24.352 100.788 24.874 100.788 25.546V31H97.7098V20.956H100.788V22.288C101.1 21.844 101.52 21.496 102.048 21.244C102.576 20.98 103.17 20.848 103.83 20.848ZM109.227 25.96C109.227 24.928 109.419 24.022 109.803 23.242C110.199 22.462 110.733 21.862 111.405 21.442C112.077 21.022 112.827 20.812 113.655 20.812C114.363 20.812 114.981 20.956 115.509 21.244C116.049 21.532 116.463 21.91 116.751 22.378V20.956H119.829V31H116.751V29.578C116.451 30.046 116.031 30.424 115.491 30.712C114.963 31 114.345 31.144 113.637 31.144C112.821 31.144 112.077 30.934 111.405 30.514C110.733 30.082 110.199 29.476 109.803 28.696C109.419 27.904 109.227 26.992 109.227 25.96ZM116.751 25.978C116.751 25.21 116.535 24.604 116.103 24.16C115.683 23.716 115.167 23.494 114.555 23.494C113.943 23.494 113.421 23.716 112.989 24.16C112.569 24.592 112.359 25.192 112.359 25.96C112.359 26.728 112.569 27.34 112.989 27.796C113.421 28.24 113.943 28.462 114.555 28.462C115.167 28.462 115.683 28.24 116.103 27.796C116.535 27.352 116.751 26.746 116.751 25.978ZM128.175 20.848C129.351 20.848 130.287 21.232 130.983 22C131.691 22.756 132.045 23.8 132.045 25.132V31H128.985V25.546C128.985 24.874 128.811 24.352 128.463 23.98C128.115 23.608 127.647 23.422 127.059 23.422C126.471 23.422 126.003 23.608 125.655 23.98C125.307 24.352 125.133 24.874 125.133 25.546V31H122.055V20.956H125.133V22.288C125.445 21.844 125.865 21.496 126.393 21.244C126.921 20.98 127.515 20.848 128.175 20.848ZM133.572 25.978C133.572 24.934 133.782 24.022 134.202 23.242C134.634 22.462 135.228 21.862 135.984 21.442C136.752 21.022 137.628 20.812 138.612 20.812C139.872 20.812 140.922 21.142 141.762 21.802C142.614 22.462 143.172 23.392 143.436 24.592H140.16C139.884 23.824 139.35 23.44 138.558 23.44C137.994 23.44 137.544 23.662 137.208 24.106C136.872 24.538 136.704 25.162 136.704 25.978C136.704 26.794 136.872 27.424 137.208 27.868C137.544 28.3 137.994 28.516 138.558 28.516C139.35 28.516 139.884 28.132 140.16 27.364H143.436C143.172 28.54 142.614 29.464 141.762 30.136C140.91 30.808 139.86 31.144 138.612 31.144C137.628 31.144 136.752 30.934 135.984 30.514C135.228 30.094 134.634 29.494 134.202 28.714C133.782 27.934 133.572 27.022 133.572 25.978ZM154.551 25.816C154.551 26.104 154.533 26.404 154.497 26.716H147.531C147.579 27.34 147.777 27.82 148.125 28.156C148.485 28.48 148.923 28.642 149.439 28.642C150.207 28.642 150.741 28.318 151.041 27.67H154.317C154.149 28.33 153.843 28.924 153.399 29.452C152.967 29.98 152.421 30.394 151.761 30.694C151.101 30.994 150.363 31.144 149.547 31.144C148.563 31.144 147.687 30.934 146.919 30.514C146.151 30.094 145.551 29.494 145.119 28.714C144.687 27.934 144.471 27.022 144.471 25.978C144.471 24.934 144.681 24.022 145.101 23.242C145.533 22.462 146.133 21.862 146.901 21.442C147.669 21.022 148.551 20.812 149.547 20.812C150.519 20.812 151.383 21.016 152.139 21.424C152.895 21.832 153.483 22.414 153.903 23.17C154.335 23.926 154.551 24.808 154.551 25.816ZM151.401 25.006C151.401 24.478 151.221 24.058 150.861 23.746C150.501 23.434 150.051 23.278 149.511 23.278C148.995 23.278 148.557 23.428 148.197 23.728C147.849 24.028 147.633 24.454 147.549 25.006H151.401Z" fill="white"/>
<path d="M34.1422 5.85781C30.3647 2.08031 25.3422 0 20 0C14.6578 0 9.63531 2.08031 5.85781 5.85781C2.08031 9.63531 0 14.6578 0 20C0 25.3422 2.08039 30.3646 5.85781 34.1422C9.63523 37.9198 14.6578 40 20 40C25.3422 40 30.3647 37.9197 34.1422 34.1422C37.9197 30.3647 40 25.3422 40 20C40 14.6578 37.9196 9.63539 34.1422 5.85781Z" fill="white"/>
<g clip-path="url(#clip0_35212_417)">
<rect width="27.4286" height="27.4286" transform="translate(6.85715 6.85714)" fill="white"/>
<path d="M20.5714 8V33.1429" stroke="#155188" stroke-width="2" stroke-linecap="round" stroke-linejoin="round"/>
<path d="M26.2857 12.5714H17.7143C16.6534 12.5714 15.636 12.9929 14.8859 13.743C14.1357 14.4931 13.7143 15.5106 13.7143 16.5714C13.7143 17.6323 14.1357 18.6497 14.8859 19.3999C15.636 20.15 16.6534 20.5714 17.7143 20.5714H23.4286C24.4894 20.5714 25.5069 20.9929 26.257 21.743C27.0072 22.4932 27.4286 23.5106 27.4286 24.5714C27.4286 25.6323 27.0072 26.6497 26.257 27.3999C25.5069 28.15 24.4894 28.5714 23.4286 28.5714H13.7143" stroke="#155188" stroke-width="2" stroke-linecap="round" stroke-linejoin="round"/>
</g>
<defs>
<clipPath id="clip0_35212_417">
<rect width="27.4286" height="27.4286" fill="white" transform="translate(6.85715 6.85714)"/>
</clipPath>
</defs>
</svg>
